<svg xmlns="http://www.w3.org/2000/svg" width="100" height="17.38" viewBox="0 0 100 17.38"><g transform="translate(-274.14 -243.17)"><path d="M293.61,245.7a.239.239,0,0,1-.239.227h-5.3c-3.781,0-5.244,1.676-5.244,5.957,0,2.319.464,3.889,1.463,4.851.749.786,1.819,1.092,3.781,1.092h5.3a.238.238,0,0,1,.238.226l.111,2.249a.238.238,0,0,1-.238.25H282.952c-3.568,0-5.28-.5-6.636-2a10.668,10.668,0,0,1,.109-13.057c1.571-1.714,3.318-2.319,6.529-2.319h10.533a.238.238,0,0,1,.238.251Z" transform="translate(0 -0.009)" fill="#02c"/><path d="M854.993,245.694a.239.239,0,0,1-.239.227h-7.585c-2.39,0-2.747.071-3.175.464a2.867,2.867,0,0,0-.606,1.962c0,1.748.571,2.1,3.424,2.1h2.357c3.853.035,4.031.071,4.816.535,1.106.678,1.748,2.286,1.748,4.352,0,2.286-.82,3.995-2.247,4.709-.821.429-1.571.5-4.316.5h-8.551a.238.238,0,0,1-.238-.226l-.111-2.249a.239.239,0,0,1,.238-.25l7.84-.021a8.99,8.99,0,0,0,2.961-.25q.857-.321.857-1.929c0-1.143-.321-1.748-1.071-1.962a14.642,14.642,0,0,0-2.533-.107h-1.391c-3.71,0-4.531-.143-5.529-.929a5.583,5.583,0,0,1-1.82-4.316,4.811,4.811,0,0,1,2.286-4.424,8.593,8.593,0,0,1,4.138-.714h8.625a.238.238,0,0,1,.238.251Z" transform="translate(-525.274 0)" fill="#02c"/><path d="M1301.539,245.539c-1.572-1.714-3.318-2.319-6.529-2.319h-10.516a.238.238,0,0,0-.238.251l.111,2.269a.239.239,0,0,0,.239.227h7c3.107,0,4.648,1.133,5.1,3.912a.121.121,0,0,1-.119.143h-7.517c-2.248,0-3.5.214-4.388.786a5.3,5.3,0,0,0-2.176,4.6,4.985,4.985,0,0,0,1.929,4.174c1.214.857,2.143,1.013,5.458,1.013h5.115c3.567,0,5.28-.5,6.635-2a9.537,9.537,0,0,0,2.177-6.386A9.65,9.65,0,0,0,1301.539,245.539Zm-12.071,12.329c-2.462,0-3.389-.678-3.389-2.533s.929-2.571,3.389-2.571h7.238a.121.121,0,0,1,.12.129,5.675,5.675,0,0,1-1.432,3.881c-.749.786-1.819,1.092-3.781,1.092h-2.143Z" transform="translate(-936.344 -0.046)" fill="#02c"/><path d="M568.436,258.249c1.571,1.714,3.317,2.3,6.528,2.3h8.468a.239.239,0,0,0,.239-.25l-.111-2.249a.239.239,0,0,0-.239-.226h-8.357c-3.107,0-4.648-1.134-5.1-3.913a.121.121,0,0,1,.119-.143h6.192c2.248,0,3.5-.214,4.389-.786a5.3,5.3,0,0,0,2.176-4.6,4.985,4.985,0,0,0-1.929-4.174c-1.214-.857-2.143-1.035-5.458-1.035h-.391c-3.567,0-5.279.521-6.635,2.019a9.535,9.535,0,0,0-2.176,6.386A9.647,9.647,0,0,0,568.436,258.249Zm7.8-12.329c2.461,0,3.389.678,3.389,2.533s-.929,2.571-3.389,2.571H569.87a.121.121,0,0,1-.12-.129,5.678,5.678,0,0,1,1.432-3.881c.749-.786,1.819-1.091,3.781-1.091h1.276Z" transform="translate(-271.152 0)" fill="#02c"/><path d="M1108.785,260.593h-6.3a5.294,5.294,0,0,1-5.294-5.294l.132-11.843a.238.238,0,0,1,.239-.236h2.886a.239.239,0,0,1,.239.239v10.915c0,1.929,1,3.494,2.933,3.494l5.061.125a.239.239,0,0,1,.233.226l.111,2.124a.239.239,0,0,1-.239.251Z" transform="translate(-764.261 -0.046)" fill="#02c"/><path d="M1597.8,261.992a2.676,2.676,0,0,1,1.949-.814,2.8,2.8,0,0,1,2.009.851,2.858,2.858,0,0,1,.747,1.9,2.755,2.755,0,1,1-5.51,0A2.669,2.669,0,0,1,1597.8,261.992Zm.4,3.525a2.226,2.226,0,0,0,1.546.634,2.176,2.176,0,0,0,1.538-.634,2.236,2.236,0,0,0,.008-3.159,2.182,2.182,0,0,0-3.085-.007,2.267,2.267,0,0,0-.657,1.583A2.306,2.306,0,0,0,1598.206,265.517Zm.194-2.875h1.65a1.19,1.19,0,0,1,.822.239.761.761,0,0,1,.2.553.614.614,0,0,1-.172.463.589.589,0,0,1-.306.149v.015a.6.6,0,0,1,.291.149.562.562,0,0,1,.127.4l.008.214a.729.729,0,0,0,.119.366h-.874a.551.551,0,0,1-.1-.306l-.007-.157a.442.442,0,0,0-.134-.329.582.582,0,0,0-.321-.075h-.417v.866h-.881Zm.883,1.127h.538a.525.525,0,0,0,.269-.045.24.24,0,0,0,.119-.224.235.235,0,0,0-.112-.214.536.536,0,0,0-.269-.045h-.546Z" transform="translate(-1228.367 -16.722)" fill="#02c"/></g></svg>